<svg xmlns="http://www.w3.org/2000/svg" viewBox="0 0 40 40" width="60" height="42"><title>Guardio</title><linearGradient id="a" x1="0%" x2="69.1105%" y1="-3.174819%" y2="63.459464%"><stop offset="0" stop-color="#0f9def"></stop><stop offset="1" stop-color="#02c198"></stop></linearGradient><path d="m14.220718 37.5458054-11.68945577-11.6279874c-1.57766885-1.5678283-2.4644664-3.6976155-2.4644664-5.9188133 0-2.2211977.88679755-4.350985 2.4644664-5.9188133l11.68945577-11.62798731c3.2895174-3.26960545 8.6111453-3.26960545 11.9006627 0l11.6904568 11.62798731c1.5776689 1.5678283 2.4644664 3.6976156 2.4644664 5.9188133 0 2.2211978-.8867975 4.350985-2.4644664 5.9188133l-11.6864528 11.6279874c-3.2899801 3.2722595-8.6146866 3.2722595-11.9046667 0zm6.0068868-6.9749955c.2002464.0003209.3972818-.0501793.5725611-.1467475l.0560549-.0239587c2.4694201-1.0901239 4.476387-2.963899 5.9778584-5.5694147.3773698-.6558711.945927-1.9087149.9699506-1.9616239l.8238073-1.8188696-6.3392125-.1607233-.0670657 2.6474436 2.261216.0559037c-1.0670458 1.8328455-2.4383896 3.2014901-4.0699886 4.0749867l-.2532483.134768-.2622569-.1527371c-4.838742-2.6214883-6.0579369-8.9296314-6.3582312-11.435319 1.2412165-.4312577 2.3773299-1.1979382 3.4864168-1.944653 1.2221977-.8235827 2.4864367-1.6751171 3.4553863-1.6751171h.0080078c.8498329.0039931 1.9779384.839555 3.0690077 1.6381805.9809614.7207596 2.0590179 1.5143937 3.2491842 1.9636206-.0973994.8394879-.2427782 1.6727453-.4354267 2.4957047l2.5815299.601964c.320069-1.3293669.5187413-2.6849151.5935817-4.0500297l.0360353-1.1929468-1.1851614-.1597252c-1.0199997-.1377628-2.1651219-.9773179-3.266201-1.7909176-1.4304017-1.0561822-2.9168584-2.14630606-4.6335408-2.15442785-1.7967609-.00984728-3.4033354 1.07728175-4.9628637 2.12847255-1.2151909.8185911-2.471422 1.6651342-3.5985266 1.8168729l-1.1851614.1597252.0360352 1.1929468c.0190187.4691925.4494405 11.5111884 8.7085345 15.1579122l.053052.0229604c.1796722.0973485.3811014.1478276.5855739.1467809z" fill="url(#a)"></path></svg>
